<?xml version="1.0" standalone="no"?>
<!DOCTYPE svg PUBLIC "-//W3C//DTD SVG 20010904//EN"
 "http://www.w3.org/TR/2001/REC-SVG-20010904/DTD/svg10.dtd">
<svg version="1.0" xmlns="http://www.w3.org/2000/svg"
 width="590.000000pt" height="590.000000pt" viewBox="0 0 590.000000 590.000000"
 preserveAspectRatio="xMidYMid meet">
<metadata>
Created by potrace 1.11, written by Peter Selinger 2001-2013
</metadata>
<g transform="translate(0.000000,590.000000) scale(0.100000,-0.100000)"
fill="#000000" stroke="none">
<path d="M3000 5588 c-334 -17 -744 -134 -1065 -302 -275 -144 -468 -287 -695
-515 -338 -339 -551 -677 -694 -1104 -38 -113 -32 -115 17 -7 140 312 344 604
596 859 425 429 919 700 1504 825 110 24 133 28 232 41 28 4 61 9 75 11 149
23 544 24 739 0 160 -19 353 -57 471 -93 47 -13 146 -42 220 -63 330 -93 407
-125 630 -258 49 -29 -44 47 -155 126 -254 184 -538 319 -835 397 -80 21 -261
59 -327 69 -117 18 -502 26 -713 14z"/>
<path d="M3315 5199 c-195 -14 -333 -38 -580 -101 -528 -133 -992 -352 -1305
-616 -114 -96 -284 -267 -375 -377 -140 -169 -298 -437 -379 -642 -35 -87 -89
-279 -101 -353 -20 -129 -27 -590 -11 -710 30 -218 87 -452 153 -629 82 -220
205 -421 258 -421 21 0 15 31 -31 154 -87 233 -103 352 -98 743 2 196 5 247
20 327 6 33 14 30 14 -5 2 -138 79 -437 177 -687 45 -116 172 -384 235 -496
18 -32 48 -75 65 -95 l32 -36 -6 35 c-3 19 -30 102 -59 183 -119 331 -161 507
-162 690 -1 98 15 172 37 172 9 0 30 -46 56 -120 154 -436 345 -744 660 -1059
305 -307 784 -602 1253 -772 105 -38 387 -124 405 -124 7 0 -76 44 -183 98
-214 108 -375 202 -528 311 -467 331 -805 725 -996 1160 -46 104 -118 312
-111 319 7 7 2 14 81 -113 137 -221 242 -354 399 -503 120 -115 262 -210 474
-316 341 -171 622 -260 991 -316 114 -17 185 -20 457 -20 372 0 493 12 838 84
116 24 383 102 398 115 4 4 -41 0 -100 -10 -107 -17 -134 -21 -288 -39 -77 -9
-563 -7 -615 3 -14 3 -50 8 -80 11 -202 23 -437 94 -635 191 -174 85 -393 231
-374 249 2 2 40 -7 84 -20 213 -64 408 -108 584 -132 25 -3 132 -6 236 -6 152
-1 206 3 270 18 124 29 180 53 216 93 l32 37 -31 27 c-44 40 -127 54 -362 64
-328 13 -463 34 -667 101 -683 227 -1209 753 -1379 1379 -24 89 -27 118 -28
270 -1 137 3 183 17 235 17 60 78 197 109 245 110 169 267 307 501 442 l112
65 -56 -6 c-134 -14 -357 -123 -552 -270 -218 -164 -368 -388 -523 -780 -74
-187 -101 -219 -129 -153 -18 41 -13 206 9 297 58 243 195 501 358 675 161
172 430 358 748 520 117 59 210 108 208 110 -8 8 -159 -17 -247 -41 -136 -37
-265 -86 -429 -165 -205 -98 -325 -180 -458 -313 -170 -170 -278 -326 -449
-646 -48 -91 -96 -177 -107 -192 -45 -64 -85 -12 -74 97 20 195 208 506 517
854 344 389 822 653 1461 810 162 40 425 91 469 91 12 0 19 3 16 7 -9 8 -328
10 -442 2z"/>
</g>
</svg>
